<?xml version="1.0" encoding="UTF-8"?>
<svg id="Lager_1" data-name="Lager 1" xmlns="http://www.w3.org/2000/svg" viewBox="0 0 179.58 192.85">
  <path d="M156.71,0s-27.56,28.52-35.82,47.26c-9.69-2.99-20.16-4.63-31.1-4.63s-21.41,1.64-31.1,4.63C50.43,28.52,22.87,0,22.87,0,22.87,0,0,32.85,0,117.74c0,41.48,40.2,75.11,89.79,75.11s89.79-33.63,89.79-75.11C179.58,32.85,156.71,0,156.71,0Z" fill="#fff" stroke-width="0"/>
  <path d="M104.84,152.1c-5.78.57-11.08-3.34-14.23-7.86l-.82.58c-.41-.29-.82-.58-.82-.58-3.15,4.51-8.44,8.43-14.23,7.86-1.94-.08-3.78-.83-5.56-1.64,7.08,4.64,15.33,1.72,20.62-4.13,3.84,4.16,9.36,7.29,15.1,6.27,2-.26,3.8-1.19,5.5-2.13-1.79.8-3.62,1.55-5.56,1.64Z" fill="#000" stroke-width="0"/>
  <path d="M89.79,140.99h0c-2.76,0-6.78-4.7-6.78-7.45h0c0-2.76,2.24-4.99,4.99-4.99h3.57c2.76,0,4.99,2.24,4.99,4.99h0c0,2.76-4.02,7.45-6.78,7.45Z" fill="#000" stroke-width="0"/>
  <g>
    <path d="M155.35,106.01c-2.13-25.87-18.88-24.5-30.35-21.34-21.33,5.88-20.4,23.82-19.54,27.65,1.73,11.17,56.38,34.52,49.89-6.32Z" fill="#000" stroke-width="0"/>
    <path d="M136.05,108.58c-1.12,16.45-19.43,15.02-17.99-1.4,1.12-16.44,19.43-15.02,17.99,1.4Z" fill="#fff" stroke-width="0"/>
  </g>
  <g>
    <path d="M24.22,106.01c2.13-25.87,18.88-24.5,30.35-21.34,21.33,5.88,20.4,23.82,19.54,27.65-1.73,11.17-56.38,34.52-49.89-6.32Z" fill="#000" stroke-width="0"/>
    <path d="M43.53,108.58c1.12,16.45,19.43,15.02,17.99-1.4-1.12-16.44-19.43-15.02-17.99,1.4Z" fill="#fff" stroke-width="0"/>
  </g>
</svg>