<?xml version="1.0" encoding="UTF-8"?>
<svg id="Lager_1" data-name="Lager 1" xmlns="http://www.w3.org/2000/svg" viewBox="0 0 210.9 161.97">
  <path d="M210.89,59.54c.3-12.38-4.48-22.42-13.27-30.83-10.91-10.44-24.18-16.65-38.36-21.06C136.56.59,113.28-1.09,89.67.62c-14.5,1.05-28.7,3.7-42.43,8.52-13.48,4.74-25.99,11.14-35.99,21.66C5.87,36.46,1.81,42.97.74,50.8.03,55.95.01,61.23,0,66.45c-.02,12.3.03,24.61.31,36.91.09,4.2.43,8.51,1.53,12.54,3.32,12.19,11.91,20.3,22.09,26.95,11.89,7.76,25.14,12.22,38.92,14.88,30.76,5.96,61.5,5.85,92.07-1.64,14.88-3.65,28.79-9.39,40.52-19.52,8.96-7.75,14.87-17.25,15.29-29.44.22-6.47.04-12.96.04-19.44.03,0,.05,0,.08,0,0-9.38-.19-18.77.05-28.15ZM168.8,81.45c-4.5,6.59-9.07,13.16-13.13,20.02-2.91,4.9-6.77,6.73-12.32,6.64-12.72-.22-25.46-.07-38.18-.07-13.14,0-26.29-.06-39.43.04-3.96.03-6.76-1.38-8.91-4.77-4.76-7.52-9.71-14.91-14.68-22.29-1-1.48-.83-2.37.35-3.61,8.59-9.01,19.32-14.31,31.06-17.69,25.32-7.29,50.29-6.29,74.71,3.86,7.6,3.16,14.33,7.69,20.09,13.65,1.4,1.45,1.64,2.47.44,4.23ZM22.06,40.73c6.91-7.37,15.57-12.14,24.85-15.8,23.95-9.44,48.9-11.48,74.31-9.57,15.25,1.15,30.12,4.18,44.3,10.12,7.72,3.23,14.98,7.26,21.14,13.01,5.44,5.08,9.51,10.94,9.4,18.8-.01.74-.69,2-1.26,2.13-5.77,1.28-10.61,4.23-15.25,8.3-7.35-7.94-16-13.62-25.64-17.77-20.52-8.82-41.94-11.13-64.01-8.62-15.14,1.72-29.57,5.77-42.62,13.75-5.63,3.44-10.71,7.8-16.33,11.97-.94-.69-2.27-1.98-3.85-2.78-3.31-1.67-6.71-3.21-10.17-4.54-1.37-.52-1.92-.93-1.99-2.51-.31-6.7,2.84-11.88,7.13-16.46Z" fill="#fff" stroke-width="0"/>
</svg>