<?xml version="1.0" encoding="UTF-8"?>
<svg id="Lager_1" data-name="Lager 1" xmlns="http://www.w3.org/2000/svg" viewBox="0 0 183.53 132.53">
  <path d="M52.44,12.6h-13.3c-5.02-.16-5.76,1.23-2.23,4.16,6.33,5.55,9.43,10.94,9.32,16.17-.12,5.23-3.22,8.36-9.32,9.38H0v-12.6h23.32c5.53.16,6.23-1.39,2.11-4.63-6.8-6.25-9.69-11.99-8.67-17.23,1.02-5.23,4.22-7.85,9.61-7.85h26.07v12.6Z" fill="#f9cb58" stroke-width="0"/>
  <path d="M83.64,0v12.6h-13.42v29.71h-13.77V12.6h-13.42V0h40.61Z" fill="#f9cb58" stroke-width="0"/>
  <path d="M91.27,0h20.32l14.15,42.3h-16l-2.67-7.62h-12.57l-2.67,7.62h-15.18l9.76-29.71,4.85-12.6ZM101.13,9.38l-6.06,16.76h11.66l-5.6-16.76Z" fill="#f9cb58" stroke-width="0"/>
  <path d="M128.16,42.3V0h27.54c3.4.31,6.19,1.21,8.38,2.7,2.19,1.48,3.79,3.48,4.8,5.98.78,3.75.82,6.64.12,8.67-.7,2.03-1.93,3.73-3.69,5.1-1.76,1.37-4.28,2.44-7.56,3.22l3.16,4.04h22.62v12.6h-26.66l-13.42-13.97v13.97h-15.29ZM143.45,10.55v7.79h10.66c.57,0,1.18-.21,1.85-.63.66-.42,1.02-1.48,1.05-3.18-.1-1.62-.49-2.69-1.19-3.21-.69-.52-1.27-.78-1.74-.78h-10.63Z" fill="#f9cb58" stroke-width="0"/>
  <path d="M14.95,70.23c.17,2.55.72,4.47,1.66,5.74.94,1.28,2.05,2.29,3.35,3.03,1.3.74,3.26,1.29,5.9,1.63,2.72-.17,4.68-.53,5.87-1.08,1.19-.55,2.55-1.47,4.08-2.74l9.06,10.08c-2.64,2.47-5.25,4.17-7.85,5.1-2.6.94-6.36,1.53-11.29,1.79-4.76-.26-8.37-.95-10.82-2.09-2.45-1.14-4.87-2.65-7.26-4.53s-4.26-4.24-5.62-7.08C.69,77.23.01,73.94.01,70.2s.67-6.97,2.03-9.81c1.35-2.84,3.22-5.2,5.62-7.08s4.81-3.39,7.26-4.53c2.45-1.14,6.05-1.83,10.82-2.09,4.93.26,8.7.85,11.29,1.79,2.59.94,5.21,2.64,7.85,5.1l-9.06,10.08c-1.53-1.28-2.89-2.19-4.08-2.74-1.19-.55-3.15-.91-5.87-1.08-2.64.34-4.61.88-5.9,1.63-1.3.74-2.41,1.75-3.35,3.03-.94,1.28-1.49,3.19-1.66,5.74Z" fill="#f9cb58" stroke-width="0"/>
  <path d="M137.24,47.71v13.72h-14.61v32.35h-15v-32.35h-14.61v-13.72h44.22Z" fill="#f9cb58" stroke-width="0"/>
  <path d="M151.81,80.06c5.99-.59,6.78-1.51,2.3-5.04-7.4-6.81-10.55-13.06-9.44-18.76,1.11-5.7,4.59-8.55,10.46-8.55h28.39v13.72h-14.48c-5.47-.17-6.27,1.34-2.42,4.53,6.89,6.04,10.27,11.91,10.15,17.61-.13,5.7-3.42,10.21-10.15,10.21-20.69,0-26.86,15.01-41.05,24.99-25.61,18-42.98,17.05-62.22,4.62s-13.88-24.56-3.71-23.72,27.34,20.52,40.75,12.42c32.75-19.76,32.66-30.2,51.44-32.04Z" fill="#f9cb58" stroke-width="0"/>
  <path d="M61.29,47.71h22.13l15.41,46.07h-17.42l-2.9-8.3h-13.69l-2.9,8.3h-16.53l10.62-32.35,5.28-13.72ZM72.03,57.92l-6.6,18.25h12.7l-6.09-18.25Z" fill="#f9cb58" stroke-width="0"/>
  <path d="M73.04,105.86c-2.68,4.75-5.03,9.8-3.57,10.81,1.86,1.29,7.32-3.19,10.98-6.54-2.53-1.32-5.01-2.82-7.41-4.27Z" fill="#df7b26" stroke-width="0"/>
  <path d="M93.96,132.35c-.58-4.37-1.74-11.54-3.19-11.41-1.3.12-2.97,6.6-4.03,11.42,2.37.22,4.77.22,7.22-.01Z" fill="#df7b26" stroke-width="0"/>
  <path d="M120.33,113.42c2.03-.82-.59-8.84-2.22-13.27-2.16,1.63-4.54,3.37-7.23,5.21,3.07,3.74,7.64,8.79,9.45,8.07Z" fill="#df7b26" stroke-width="0"/>
  <path d="M59.63,99.67c-8.21-.68-13.27,7.1-4.8,16.66,3.66-.77,3.7-3.13,3.86-7.9.1-3.06,3.06-5.61,5.8-7.32-1.74-.78-3.37-1.31-4.85-1.43Z" fill="#df7b26" stroke-width="0"/>
  <path d="M143.34,89.51c-.82.73.9,7.1,2.22,11.48,2.02-1.56,4.17-2.96,6.53-4.1-3.71-3.83-8.05-8.02-8.75-7.39Z" fill="#df7b26" stroke-width="0"/>
</svg>