<?xml version="1.0" encoding="UTF-8"?>
<svg id="Lager_1" data-name="Lager 1" xmlns="http://www.w3.org/2000/svg" viewBox="0 0 200 200.32">
  <polygon points="200 200 0 200 0 65.88 0 0 200 0 200 200" fill="#ff7c2e" stroke-width="0"/>
  <path d="M190.25,105.29v-14.84c-3.92-1.63-10.22-1.55-19,1.89-21.32,8.36-32.24,21.91-32.59,53.21-.19,17.35,8.39,31.13-3.69,47.92-1.62,2.25-2.26,4.46-2.16,6.54h20.02c-.65-3.02.19-7.55,1.92-10.54,9.47-16.32.95-22.33,4.03-60.46,1.14-14.1,22.47-17.47,31.46-23.71h.01Z" fill="#fabb2f" stroke-width="0"/>
  <path d="M179.82,110.45c-2.29-4.95-5.02-9.8-6.69-9.21-2.14.76-1.69,7.8-1.1,12.73,2.55-1.28,5.22-2.42,7.8-3.52h0Z" fill="#df7b26" stroke-width="0"/>
  <path d="M146.1,111.96c3.88,2.08,10.39,5.32,11.12,4.07.66-1.12-3.63-6.26-6.92-9.94-1.56,1.8-2.96,3.74-4.21,5.87h.01Z" fill="#df7b26" stroke-width="0"/>
  <path d="M146.06,144.42c-.52,2.12,7.52,4.68,12.07,5.95-.07-2.71-.08-5.66,0-8.91-4.82.31-11.6,1.07-12.07,2.96Z" fill="#df7b26" stroke-width="0"/>
  <path d="M192.68,103.17c5.35-6.26,1.99-14.92-10.72-13.63-1.51,3.42.38,4.83,4.16,7.75,2.42,1.87,2.77,5.76,2.56,8.98,1.65-.96,3.03-1.98,3.99-3.1h0Z" fill="#df7b26" stroke-width="0"/>
  <path d="M152.03,177.07c-.11-1.1-6.29-3.41-10.62-4.91.08,2.55-.03,5.11-.49,7.7,5.28-.77,11.21-1.85,11.11-2.79Z" fill="#df7b26" stroke-width="0"/>
  <path d="M152.83,200c-.65-3.02.19-7.55,1.92-10.54,9.47-16.32.95-22.33,4.03-60.46,1.08-13.34,20.21-17.08,29.89-22.72h0s.02-.01.03-.02c.36-.21.71-.42,1.04-.64.07-.04.13-.09.2-.13.1-.07.21-.13.3-.2v-.02c.96-.66,1.79-1.35,2.42-2.1,3.89-4.56,3.17-10.39-2.42-12.72h0c-.08-.04-.17-.07-.26-.1-.12-.05-.24-.09-.37-.14-.14-.05-.28-.09-.43-.14-.12-.04-.24-.07-.36-.11-.16-.04-.33-.08-.49-.12-.12-.03-.23-.05-.35-.08-.18-.04-.37-.07-.56-.1-.11-.02-.22-.04-.33-.05-.2-.03-.41-.06-.63-.08-.11-.01-.21-.02-.32-.03-.23-.02-.46-.04-.7-.05-.1,0-.2-.01-.3-.01-.25,0-.51-.01-.77-.01h-.28c-.27,0-.55.01-.84.03-.09,0-.18,0-.27.01-.29.02-.59.04-.9.07-.05,0-.09,0-.14.01h0c-3.03.31-6.59,1.18-10.7,2.79-21.32,8.36-32.24,21.91-32.59,53.21-.19,17.35,8.39,31.13-3.69,47.92-1.62,2.25-2.26,4.46-2.16,6.54" fill="none" stroke="#383732" stroke-miterlimit="10" stroke-width="3"/>
  <path d="M133.97,128.63c13.95-12.87,5.79-39.79,3.33-46.4-8.63-23.14-27.11-32.22-39.36-33-10.97-.7-19.49,1.19-26.3,4.24-4.13-5.67-11.37-14.74-15.49-14.74-5.02,0-5.34,23.65-5.32,31.43-1.88,2.62-3.43,5.6-4.67,8.82-4.11,7.96-6.89,19.68-7.99,35.31-1.05,14.81,14.41,16.39,22.69,26.76,10.59,26.53,4.68,53.79,4.6,58.96h72.99c1-5.79-1.4-7.33-2.94-32.08-.63-10.15-8.18-33.17-1.53-39.3h-.01Z" fill="#fabb2f" stroke-width="0"/>
  <path d="M57.89,59.52c1.45-.34,3.66-.8,5.65-1.03,1.31-.15,2.27-1.56,1.62-2.37-2.57-3.18-5.04-9.92-7.44-8.85-2,.9-1.16,7.87-1.36,11.24-.04.76.64,1.22,1.53,1.01Z" fill="#df7b26" stroke-width="0"/>
  <g>
    <path d="M63.65,144.17s-9.58,35.93-9.58,54.57v1.26h27.75l.47-1.26s4.23-7.61,4.54-12.58-3.11-14.13-3.11-15.22" fill="#fabb2f" stroke-width="0"/>
    <path d="M52.04,200.01l.04-1.26.12-3.51c.07-1.16.17-2.32.25-3.48.2-2.31.45-4.61.81-6.88.64-4.56,1.46-9.08,2.42-13.56.92-4.49,2.02-8.94,3.18-13.36,1.2-4.42,3.13-9.75,4.61-14.09l-2.78,14.48c-.72,4.5-1.38,9.01-2.04,13.5-.62,4.5-1.26,9-1.73,13.49-.43,4.49-.91,8.99-.88,13.41l.05,1.26h-4.05Z" fill="#383732" stroke-width="0"/>
    <path d="M79.93,200l.94-2.05c1.17-1.99,2.26-4.14,3.17-6.29.91-2.15,1.73-4.36,1.78-6.54.04-2.27-.34-4.67-.77-7.03-.39-2.38-1.05-4.72-1.32-7.15.32,1.17.82,2.28,1.23,3.42.42,1.14.84,2.28,1.23,3.44.75,2.33,1.44,4.69,1.68,7.26.11,1.32-.04,2.66-.29,3.9-.25,1.25-.58,2.48-.97,3.66-.82,2.38-1.77,4.63-2.9,6.9l-.23.47h-3.55Z" fill="#383732" stroke-width="0"/>
  </g>
  <path d="M138.45,200c1-5.78-1.4-7.33-2.94-32.07-.63-10.15-8.18-33.17-1.53-39.3,13.95-12.87,5.79-39.79,3.33-46.4-8.63-23.14-27.11-32.22-39.36-33-10.97-.7-19.49,1.19-26.3,4.24-4.13-5.67-11.37-14.74-15.49-14.74-5.02,0-5.34,23.65-5.32,31.43-1.88,2.62-3.43,5.6-4.67,8.82-4.11,7.96-6.89,19.68-7.99,35.31-1.05,14.81,14.41,16.39,22.69,26.76,10.59,26.53,4.68,53.79,4.6,58.96" fill="none" stroke="#383732" stroke-miterlimit="10" stroke-width="3"/>
  <path d="M81.7,147.35c-19.35-4.46-6.26,52.65-6.26,52.65h21.51c-.81-17.19,10-46.83-15.25-52.65Z" fill="#ffce17" stroke-width="0"/>
  <g>
    <path d="M122.47,139.58s17.86,36.84,17.86,59.16v1.26h-33.28l-.53-1.26s-5.07-9.12-5.44-15.07,3.72-16.93,3.72-18.23" fill="#fabb2f" stroke-width="0"/>
    <path d="M109.04,200l-1.11-2.05c-1.4-2.41-2.69-5-3.77-7.59-1.07-2.6-2.04-5.27-2.08-7.94-.02-2.75.46-5.62,1.01-8.44.5-2.84,1.33-5.64,1.7-8.54-.35,1.4-.94,2.74-1.42,4.11-.49,1.37-.97,2.74-1.42,4.14-.86,2.79-1.66,5.62-1.93,8.67-.12,1.56.07,3.14.38,4.62.31,1.49.71,2.94,1.19,4.35.99,2.82,2.15,5.51,3.5,8.2l.24.47h37.04l-.06-1.26-.21-4.03c-.1-1.34-.32-2.65-.47-3.97-.14-1.33-.43-2.62-.67-3.92-.25-1.3-.52-2.59-.86-3.86-1.21-5.13-2.81-10.12-4.6-15.02-1.75-4.92-3.8-9.72-5.95-14.46-2.19-4.72-4.49-9.39-7.09-13.9,1.85,4.86,3.65,9.71,5.35,14.6,1.73,4.87,3.34,9.78,4.82,14.71,1.44,4.94,2.86,9.88,3.86,14.88.97,4.99,1.95,11.28,1.95,16.24" fill="#383732" stroke-width="0"/>
  </g>
  <path d="M54.36,90.41s8.53,3.92,11.68-2.05c1.82-3.45-3.87-8.53-7.63-7.8-5.91,1.14-10.26,7.11-4.04,9.86h0Z" fill="#383732" stroke-width="0"/>
  <path d="M100.9,79.92c-2.79,1.81-5.59,3.54-8.26,5.41-1.34.93-2.63,1.9-3.79,2.95-.58.52-1.11,1.08-1.52,1.66-.42.58-.6,1.16-.54,1.5l-1.25-.71c2.7-.78,5.41-1.32,8.2-1.55,1.39-.12,2.8-.11,4.2.03,1.38.16,2.85.51,3.92,1.43-1.26-.57-2.62-.6-3.95-.53-1.33.08-2.66.28-3.98.52-1.32.26-2.63.56-3.94.88-1.3.34-2.62.69-3.88,1.08l-1.03.32-.22-1.02c-.14-.63-.07-1.27.12-1.78.18-.52.44-.95.72-1.33.56-.76,1.2-1.39,1.85-1.96,1.32-1.13,2.75-2.04,4.19-2.9,1.46-.83,2.95-1.58,4.47-2.26,1.53-.66,3.07-1.29,4.67-1.77l.02.03Z" fill="#383732" stroke-width="0"/>
  <ellipse cx="59.12" cy="84.22" rx="2.5" ry="1.77" fill="#fff" stroke-width="0"/>
  <g>
    <circle cx="58.95" cy="117.66" r="1.9" fill="#383732" stroke-width="0"/>
    <circle cx="65.38" cy="118.06" r="1.9" fill="#383732" stroke-width="0"/>
  </g>
  <g>
    <path d="M129.55,77.98s.82-39.25-6.13-39.25-21.56,22.24-21.56,22.24" fill="#fabb2f" stroke-width="0"/>
    <path d="M129.55,77.98c-.83-9.03-1.29-18.03-2.58-26.97-.68-3.6-.97-7.91-3.24-10.67-.41-.3-1.08-.03-1.75.22-3.19,1.54-5.69,4.19-8.27,6.77-4.11,4.32-7.96,8.98-11.85,13.64,3.86-7.04,12.45-21.01,20.26-23.52,10.62-3.02,8.28,34.29,7.43,40.53h0Z" fill="#383732" stroke-width="0"/>
  </g>
  <path d="M113.58,65.18c1.4.7,3.44,2.92,5.23,4.14,1.18.8,2.82-1.18,2.71-2.6-.41-5.58,1.19-15.19-1.4-15.75-2.16-.47-5.27,8.18-7.28,11.91-.45.84-.13,1.88.73,2.31h0Z" fill="#df7b26" stroke-width="0"/>
  <g>
    <path d="M51.66,61.49c5.55-2.13,35.07-3.87,44.6.98s15.95,17.18,16.18,28.69c.22,11.52-4.43,25.06-6.65,29.7s-14.62,25.66-19.5,27.28c-4.87,1.62-23.58,2.05-28.01-1.59s-20.79-18.98-20.96-31.4c-.14-10.51,3.25-25.71,1.92-27.33s-2.56-7.04-1.07-11.31,10.8-14,13.48-15.03h.01Z" fill="#1e1e1e" stroke-width="0"/>
    <path d="M94.14,68.28s10.05,7.4,11.72,14.93-5.16,3.63-6.84.42-9.77-10.19-9.91-12,.7-5.16,5.02-3.35h.01Z" fill="#595959" stroke-width="0"/>
    <path d="M59.82,126.74c-6.14-11.72,2.79-23.16,2.79-23.16-.6-11.63,8.6-33.06,13.82-44.2-10.62-.19-21.6.89-24.77,2.11-2.68,1.03-12,10.79-13.48,15.03-1.49,4.27-.26,9.7,1.07,11.31s-2.06,16.81-1.92,27.33c.17,12.42,17.36,29.44,21.79,33.07,2.73,2.24,9.94,3,16.97,2.01-4.96-6.25-12.39-16.1-16.27-23.5Z" fill="#232323" stroke-width="0"/>
    <path d="M74.04,150.87c-6.71,0-13.89-.84-16.71-3.15-.21-.17-21.31-17.66-21.5-32.54-.07-5.29.74-11.78,1.39-17,.47-3.77,1.06-8.44.77-9.52-1.61-2.12-2.87-7.96-1.23-12.64,1.57-4.48,11.13-14.69,14.36-15.93h0c6.07-2.33,36.03-3.94,45.82,1.05,9.61,4.89,16.75,17.51,16.99,30,.23,11.72-4.48,25.53-6.79,30.38-1.65,3.47-14.56,26.13-20.38,28.06-2.28.76-7.35,1.29-12.72,1.29ZM52.2,62.89h0c-2.26.87-11.26,10.29-12.6,14.12-1.36,3.88-.1,8.76.81,9.87,1.03,1.25.75,3.98-.21,11.67-.64,5.12-1.44,11.5-1.37,16.59.15,11.2,14.78,25.64,20.41,30.26,3.81,3.13,21.82,2.9,26.58,1.33,3.91-1.3,15.8-20.58,18.62-26.5,2.21-4.64,6.72-17.85,6.5-29.03-.22-11.45-6.68-22.97-15.35-27.38-9-4.58-37.77-3.08-43.38-.92h-.01Z" fill="#383732" stroke-width="0"/>
  </g>
  <path d="M72.64,133.22s2.9-10.58,7.12-16.8c1.48-2.18.2-5.14-2.4-5.56l-5.15-.84-8.18-1.33-3.87,10.31,12.48,14.21h0Z" fill="#232323" stroke-width="0"/>
  <path d="M40.46,87.63s15.27.23,15.27,3.76-.47,9.4-2.58,9.4-12.22.94-12.68-13.15h-.01Z" fill="#fff" stroke="#383732" stroke-miterlimit="10" stroke-width="3"/>
  <path d="M74.79,95.08c0-1.76-.22-5.74,2.38-6.17s12.37-2.46,17.32.02c0,0,1.09,10.33-7.6,11.36-8.69,1.03-12.11,3.46-12.1-5.2h0Z" fill="#fff" stroke="#383732" stroke-miterlimit="10" stroke-width="3"/>
  <path d="M106.89,89.81s19.91,2.74,33.68-5.53c0,0,6.18,3.11,2.56,10.09-3.3,6.35-27.91,10.88-38.09,6.98,0,0-5.72-7.83,1.86-11.53h-.01Z" fill="#1d1d1b" stroke="#383732" stroke-miterlimit="10" stroke-width="2"/>
  <path d="M64.5,116.41h-8.54v-7.46h0c2.38-1.5,5.57-1.6,8.07-.25l.47.25v7.46Z" fill="#383732" stroke-width="0"/>
  <path d="M72.64,133.22h-21.2c-1.4,0-2.33-1.44-1.76-2.71l5.77-12.96c.31-.7,1-1.14,1.76-1.14h6.29c.63,0,1.21.3,1.58.82l9.14,12.96c.9,1.28-.01,3.04-1.58,3.04h0Z" fill="#383732" stroke-width="0"/>
  <line x1="57.08" y1="120.48" x2="57.08" y2="131.28" fill="none" stroke="#1e1e1e" stroke-miterlimit="10"/>
  <line x1="59.59" y1="120.48" x2="59.59" y2="131.28" fill="none" stroke="#1e1e1e" stroke-miterlimit="10"/>
  <line x1="62.11" y1="120.48" x2="62.11" y2="131.28" fill="none" stroke="#1e1e1e" stroke-miterlimit="10"/>
  <line x1="64.63" y1="120.48" x2="64.63" y2="131.28" fill="none" stroke="#1e1e1e" stroke-miterlimit="10"/>
  <path d="M136.66,180.58c.94,1.42,3.13.84,3.25-.85.47-6.58.75-17.49-1.62-25.61-1.46-5.02-1.32-8.2-1.32-8.2,0,0-28.36-17.03-37.37-12.99-1.33.6-3.29,4.82-3.29,4.82,0,0,29.88,27.03,40.35,42.84h0Z" fill="#1e1e1e" stroke="#383732" stroke-miterlimit="10" stroke-width="3"/>
</svg>