<?xml version="1.0" encoding="UTF-8"?>
<svg id="Lager_1" data-name="Lager 1" xmlns="http://www.w3.org/2000/svg" viewBox="0 0 200 200.32">
  <polygon points="200 200 0 200 0 65.88 0 0 200 0 200 200" fill="#ddd" stroke-width="0"/>
  <path d="M190.25,105.29v-14.84c-3.92-1.63-10.22-1.55-19,1.89-21.32,8.36-32.24,21.91-32.59,53.21-.19,17.35,8.39,31.13-3.69,47.92-1.62,2.25-2.26,4.46-2.16,6.54h20.02c-.65-3.02.19-7.55,1.92-10.54,9.47-16.32.95-22.33,4.03-60.46,1.14-14.1,22.47-17.47,31.46-23.71h.01Z" fill="#a0a0a0" stroke-width="0"/>
  <path d="M192.68,103.17c5.35-6.26,1.99-14.92-10.72-13.63-1.51,3.42.38,4.83,4.16,7.75,2.42,1.87,2.77,5.76,2.56,8.98,1.65-.96,3.03-1.98,3.99-3.1h0Z" fill="#fcfcfc" stroke-width="0"/>
  <path d="M152.83,200c-.65-3.02.19-7.55,1.92-10.54,9.47-16.32.95-22.33,4.03-60.46,1.08-13.34,20.21-17.08,29.89-22.72h0s.02-.01.03-.02c.36-.21.71-.42,1.04-.64.07-.04.13-.09.2-.13.1-.07.21-.13.3-.2v-.02c.96-.66,1.79-1.35,2.42-2.1,3.89-4.56,3.17-10.39-2.42-12.72h0c-.08-.04-.17-.07-.26-.1-.12-.05-.24-.09-.37-.14-.14-.05-.28-.09-.43-.14-.12-.04-.24-.07-.36-.11-.16-.04-.33-.08-.49-.12-.12-.03-.23-.05-.35-.08-.18-.04-.37-.07-.56-.1-.11-.02-.22-.04-.33-.05-.2-.03-.41-.06-.63-.08-.11-.01-.21-.02-.32-.03-.23-.02-.46-.04-.7-.05-.1,0-.2-.01-.3-.01-.25,0-.51-.01-.77-.01h-.28c-.27,0-.55.01-.84.03-.09,0-.18,0-.27.01-.29.02-.59.04-.9.07-.05,0-.09,0-.14.01h0c-3.03.31-6.59,1.18-10.7,2.79-21.32,8.36-32.24,21.91-32.59,53.21-.19,17.35,8.39,31.13-3.69,47.92-1.62,2.25-2.26,4.46-2.16,6.54" fill="none" stroke="#383732" stroke-miterlimit="10" stroke-width="3"/>
  <path d="M133.97,128.63c13.95-12.87,5.79-39.79,3.33-46.4-8.63-23.14-27.11-32.22-39.36-33-10.97-.7-19.49,1.19-26.3,4.24-4.13-5.67-11.37-14.74-15.49-14.74-5.02,0-5.34,23.65-5.32,31.43-1.88,2.62-3.43,5.6-4.67,8.82-4.11,7.96-6.89,19.68-7.99,35.31-1.05,14.81,14.41,16.39,22.69,26.76,10.59,26.53,4.68,53.79,4.6,58.96h72.99c1-5.79-1.4-7.33-2.94-32.08-.63-10.15-8.18-33.17-1.53-39.3h-.01Z" fill="#a0a0a0" stroke-width="0"/>
  <path d="M57.89,59.52c1.45-.34,3.66-.8,5.65-1.03,1.31-.15,2.27-1.56,1.62-2.37-2.57-3.18-5.04-9.92-7.44-8.85-2,.9-1.16,7.87-1.36,11.24-.04.76.64,1.22,1.53,1.01Z" fill="#262626" stroke-width="0"/>
  <g>
    <path d="M63.65,144.17s-9.58,35.93-9.58,54.57v1.26h27.75l.47-1.26s4.23-7.61,4.54-12.58-3.11-14.13-3.11-15.22" fill="#a0a0a0" stroke-width="0"/>
    <path d="M52.04,200.01l.04-1.26.12-3.51c.07-1.16.17-2.32.25-3.48.2-2.31.45-4.61.81-6.88.64-4.56,1.46-9.08,2.42-13.56.92-4.49,2.02-8.94,3.18-13.36,1.2-4.42,3.13-9.75,4.61-14.09l-2.78,14.48c-.72,4.5-1.38,9.01-2.04,13.5-.62,4.5-1.26,9-1.73,13.49-.43,4.49-.91,8.99-.88,13.41l.05,1.26h-4.05Z" fill="#383732" stroke-width="0"/>
    <path d="M79.93,200l.94-2.05c1.17-1.99,2.26-4.14,3.17-6.29.91-2.15,1.73-4.36,1.78-6.54.04-2.27-.34-4.67-.77-7.03-.39-2.38-1.05-4.72-1.32-7.15.32,1.17.82,2.28,1.23,3.42.42,1.14.84,2.28,1.23,3.44.75,2.33,1.44,4.69,1.68,7.26.11,1.32-.04,2.66-.29,3.9-.25,1.25-.58,2.48-.97,3.66-.82,2.38-1.77,4.63-2.9,6.9l-.23.47h-3.55Z" fill="#383732" stroke-width="0"/>
  </g>
  <path d="M138.45,200c1-5.78-1.4-7.33-2.94-32.07-.63-10.15-8.18-33.17-1.53-39.3,13.95-12.87,5.79-39.79,3.33-46.4-8.63-23.14-27.11-32.22-39.36-33-10.97-.7-19.49,1.19-26.3,4.24-4.13-5.67-11.37-14.74-15.49-14.74-5.02,0-5.34,23.65-5.32,31.43-1.88,2.62-3.43,5.6-4.67,8.82-4.11,7.96-6.89,19.68-7.99,35.31-1.05,14.81,14.41,16.39,22.69,26.76,10.59,26.53,4.68,53.79,4.6,58.96" fill="none" stroke="#383732" stroke-miterlimit="10" stroke-width="3"/>
  <g>
    <g>
      <polygon points="55.87 34.03 92.68 28.29 130.85 31.45 92.18 45.85 55.87 34.03" fill="#fff" stroke-width="0"/>
      <path d="M54.5,33.23l38.15-5.94,39.93,3.3-1.07,1.68-39.31,14.64-36.93-12.02-.76-1.65ZM60.16,34.37l31.99,10.42,34.14-12.71-33.58-2.78-32.56,5.07Z" fill="#383732" stroke-width="0"/>
    </g>
    <g>
      <path d="M74.01,39.61s17.15-19.07,18.53-19.07,18.81,20.5,18.81,20.5l-19.78,10.46-17.57-11.89Z" fill="#fff" stroke-width="0"/>
      <path d="M91.51,52.67l-19.01-12.88.77-.85c17.45-19.4,18.78-19.4,19.28-19.4.55,0,1.85,0,19.57,20.85l.81.95-21.41,11.33ZM75.52,39.42l16.12,10.91,18.15-9.6c-7.27-8.52-15.3-17.54-17.25-19.07-1.95,1.44-9.86,9.83-17.01,17.75ZM92.25,21.48h0s0,0,0,0Z" fill="#383732" stroke-width="0"/>
    </g>
    <g opacity=".12">
      <polyline points="79.16 45.45 74.01 43.73 73.58 40.76 78.25 36.08 91.99 40.39 105.31 35.12 108.84 39.64 91.99 49.7 91.99 58.92" fill="#1d1d1b" stroke-width="0"/>
    </g>
    <g>
      <polygon points="55.87 34.03 71.34 54.5 92.18 58.92 116.7 53.72 130.85 31.45 92.18 45.85 55.87 34.03" fill="#fff" stroke-width="0"/>
      <path d="M132.58,30.59l-15.26,24.02-25.15,5.34-21.41-4.55-16.7-22.1,1.81-.32,36.28,11.81,38.67-14.4M71.91,53.6l20.27,4.31,23.91-5.08,12.32-19.4-36.21,13.48-33.61-10.94,13.32,17.63Z" fill="#383732" stroke-width="0"/>
    </g>
    <g>
      <line x1="91.99" y1="20.54" x2="91.99" y2="38.64" fill="#fff" stroke-width="0"/>
      <polygon points="92.99 20.54 91.99 38.64 90.99 20.54 92.99 20.54" fill="#383732" stroke-width="0"/>
    </g>
  </g>
  <path d="M81.7,147.35c-19.35-4.46-6.26,52.65-6.26,52.65h21.51c-.81-17.19,10-46.83-15.25-52.65Z" fill="#f2f2f2" stroke-width="0"/>
  <g>
    <path d="M122.47,139.58s17.86,36.84,17.86,59.16v1.26h-33.28l-.53-1.26s-5.07-9.12-5.44-15.07,3.72-16.93,3.72-18.23" fill="#a0a0a0" stroke-width="0"/>
    <path d="M109.04,200l-1.11-2.05c-1.4-2.41-2.69-5-3.77-7.59-1.07-2.6-2.04-5.27-2.08-7.94-.02-2.75.46-5.62,1.01-8.44.5-2.84,1.33-5.64,1.7-8.54-.35,1.4-.94,2.74-1.42,4.11-.49,1.37-.97,2.74-1.42,4.14-.86,2.79-1.66,5.62-1.93,8.67-.12,1.56.07,3.14.38,4.62.31,1.49.71,2.94,1.19,4.35.99,2.82,2.15,5.51,3.5,8.2l.24.47h37.04l-.06-1.26-.21-4.03c-.1-1.34-.32-2.65-.47-3.97-.14-1.33-.43-2.62-.67-3.92-.25-1.3-.52-2.59-.86-3.86-1.21-5.13-2.81-10.12-4.6-15.02-1.75-4.92-3.8-9.72-5.95-14.46-2.19-4.72-4.49-9.39-7.09-13.9,1.85,4.86,3.65,9.71,5.35,14.6,1.73,4.87,3.34,9.78,4.82,14.71,1.44,4.94,2.86,9.88,3.86,14.88.97,4.99,1.95,11.28,1.95,16.24" fill="#383732" stroke-width="0"/>
  </g>
  <g>
    <path d="M129.55,77.98s.82-39.25-6.13-39.25-21.56,22.24-21.56,22.24" fill="#a0a0a0" stroke-width="0"/>
    <path d="M129.55,77.98c-.83-9.03-1.29-18.03-2.58-26.97-.68-3.6-.97-7.91-3.24-10.67-.41-.3-1.08-.03-1.75.22-3.19,1.54-5.69,4.19-8.27,6.77-4.11,4.32-7.96,8.98-11.85,13.64,3.86-7.04,12.45-21.01,20.26-23.52,10.62-3.02,8.28,34.29,7.43,40.53h0Z" fill="#383732" stroke-width="0"/>
  </g>
  <path d="M112.56,63.88c1.4.7,3.44,2.92,5.23,4.14,1.18.8,2.82-1.18,2.71-2.6-.41-5.58,1.19-15.19-1.4-15.75-2.16-.47-5.27,8.18-7.28,11.91-.45.84-.13,1.88.73,2.31h0Z" fill="#262626" stroke-width="0"/>
  <path d="M74.41,195.02L6.88,96.69s-1.33-3.33,1.21-5.01c2.79-1.85,4.56,1.05,4.56,1.05l67.53,98.33-5.77,3.96Z" fill="#76bee2" stroke-width="0"/>
  <path d="M84.79,57.63s7.16,15.5,18.83,16.63,23.57-.73,33.51,15.18c5.95,9.52,4.79,26.88,4.79,26.88,0,0,3.06-5.11,8.39-10.22s-4.66-33.72-4.21-38.61-1.82-11.76-10.47-14.11-7.03-.7-7.03-.7l.99,20.83s-22.62-2.84-26.54-14.58l1.52-2.63-12.38,1.61-7.39-.27Z" fill="#a0711d" stroke="#383732" stroke-miterlimit="10" stroke-width="3"/>
  <path d="M84.79,57.63s-19.73,13.05-30.28,17.57-12.45,14.38-12.95,16.48-2.87,15.52-2.87,15.52c0,0-3.58,2.64-3.58-11.48s4.29-28.05,15.92-35.77l-.18,10.21s16.26-6.06,20.5-15.66l13.45,3.13Z" fill="#a0711d" stroke="#383732" stroke-miterlimit="10" stroke-width="3"/>
  <path d="M82.58,187.95c-.93-1.23-2.68-1.47-3.91-.54l-6.67,5.04c-1.23.93-1.47,2.68-.54,3.91l2.75,3.65h17.47l-9.1-12.05Z" fill="#474747" stroke-width="0"/>
  <path d="M63.42,122.23c-.84,0-1.64-.32-2.32-.94-2.27-2.06-3.06-7.26-1.61-10.69,0,0,.34-.33,1.09-.16s.8.68.8.68c-1.31,3.12-.43,7.61,1.22,9.1.51.46.85.41.97.39.43-.07,2-.68,3.88-5.43l.98-2.48.93,2.49c.97,2.6,2.64,5.02,3.46,5.02,0,0,.02,0,.02,0,.07,0,1.73-.19,3.16-7.97,0,0,.45-.27,1.03-.2.76.09.95.43.95.43-1.17,6.32-2.71,9.2-4.99,9.34-2,.13-3.61-2.11-4.59-4.01-1.34,2.66-2.79,4.09-4.41,4.37-.18.03-.37.05-.55.05Z" fill="#383732" stroke-width="0"/>
  <g>
    <path d="M99.27,89.41c-.79-9.63-7.03-9.12-11.3-7.95-7.94,2.19-7.6,8.87-7.28,10.29.64,4.16,20.99,12.85,18.58-2.35h0Z" fill="#3f3f3f" stroke-width="0"/>
    <path d="M90.81,90.27c-.26,3.8-4.49,3.47-4.16-.32.26-3.8,4.49-3.47,4.16.32Z" fill="#fff" stroke-width="0"/>
  </g>
  <g>
    <path d="M48.5,89.4c-2.42,15.21,17.93,6.51,18.58,2.35.32-1.43.67-8.11-7.28-10.29-4.27-1.18-10.51-1.69-11.3,7.95h0Z" fill="#3f3f3f" stroke-width="0"/>
    <path d="M59.22,89.9c.42,4.74-4.87,5.16-5.2.4-.42-4.74,4.87-5.15,5.2-.4Z" fill="#fff" stroke-width="0"/>
  </g>
  <path d="M68.36,108.97h0c-1.47,0-3.6-2.5-3.6-3.96h0c0-1.47,1.19-2.65,2.65-2.65h1.9c1.47,0,2.65,1.19,2.65,2.65h0c0,1.47-2.14,3.96-3.6,3.96h0Z" fill="#383732" stroke-width="0"/>
  <line x1="76.21" y1="104.45" x2="114.16" y2="102.49" fill="none" stroke="#21211f" stroke-miterlimit="10" stroke-width="2"/>
  <line x1="74.85" y1="107.36" x2="111.46" y2="111.43" fill="none" stroke="#21211f" stroke-miterlimit="10" stroke-width="2"/>
  <line x1="61.1" y1="104.32" x2="29.27" y2="102.36" fill="none" stroke="#21211f" stroke-miterlimit="10" stroke-width="2"/>
  <line x1="62.24" y1="107.23" x2="31.53" y2="111.3" fill="none" stroke="#21211f" stroke-miterlimit="10" stroke-width="2"/>
</svg>