<?xml version="1.0" encoding="UTF-8"?>
<svg id="Lager_1" data-name="Lager 1" xmlns="http://www.w3.org/2000/svg" version="1.1" viewBox="0 0 200 200.2">
  <defs>
    <style>
      .cls-1 {
        fill: #d6d6d6;
      }

      .cls-1, .cls-2 {
        stroke-width: 0px;
      }

      .cls-2 {
        fill: #afafaf;
      }
    </style>
  </defs>
  <polygon class="cls-1" points="200 200 0 200 0 65.9 0 0 200 0 200 200"/>
  <path class="cls-2" d="M152.8,200h0c-.2-.8-.2-1.6-.2-2.5,0-2.7.8-5.8,2.1-8,3.6-6.1,4.6-10.8,4.6-16.3,0-5.8-1-12.5-1.2-22.8h0c0-.6,0-1.2,0-1.8v-.4c0-.6,0-1.2,0-1.9v-.3c0-1.4,0-2.9,0-4.5h0c0-3.7.3-7.9.7-12.4,0-.4,0-.9.2-1.3,0,0,0,0,0-.1,0-.4.1-.7.2-1.1,0,0,0-.1,0-.2,0-.3.2-.7.3-1,0,0,0-.1,0-.2.1-.3.2-.6.4-.9,0,0,0-.1,0-.2.1-.3.3-.6.5-.9,0,0,0,0,0-.2.2-.3.4-.6.6-.9,0,0,0,0,0,0,.2-.3.4-.6.7-.9,0,0,0,0,0,0,2.5-3,6.2-5.3,10.1-7.2,1.2-.6,2.4-1.2,3.6-1.7.1,0,.2,0,.3-.1,1.2-.5,2.4-1,3.5-1.5,4-1.7,7.9-3.3,10.6-5.2h0c.4-.3.7-.5,1-.8.1-.1.3-.2.4-.4.1,0,.2-.2.3-.3.2-.2.3-.3.5-.5,0,0,.1-.1.2-.2h0c5.4-6.3,2-14.9-10.7-13.6h0c-.1,0-.2,0-.3,0-.2,0-.3,0-.5,0-.2,0-.5,0-.7.1-.2,0-.3,0-.5,0-.3,0-.5,0-.8.2-.2,0-.3,0-.5,0-.3,0-.6.1-.9.2-.1,0-.3,0-.4,0-.4,0-.7.2-1.1.3-.1,0-.2,0-.3,0-.4.1-.9.3-1.4.4,0,0,0,0,0,0-1,.3-2.1.7-3.2,1.1-21.3,8.4-32.2,21.9-32.6,53.2-.1,9.8,2.6,18.4,2.8,27v.3c0,.8,0,1.5,0,2.3,0,.1,0,.3,0,.4,0,.4,0,.8,0,1.2,0,.1,0,.3,0,.4-.2,2-.5,4-1.1,6,0,0,0-.1,0-.1-1.2-5.1-2.8-10.1-4.6-15h0c-.2-3.2-1.1-7.7-2-12.4-.3-1.4-.6-2.9-.8-4.4-.3-1.5-.5-2.9-.7-4.4-.1-1-.3-1.9-.4-2.9,0-.5-.1-.9-.1-1.4-.2-1.9-.3-3.7-.2-5.3,0-1.2.1-2.4.3-3.5.4-2.1,1.1-3.9,2.4-5h0c13.9-12.9,5.8-39.8,3.3-46.4-1.9-5.2-4.4-9.6-7.1-13.5.5-13-.1-33.6-8.1-31.3-4.9,1.6-10.2,7.8-14.4,13.9-3.5-1.2-6.8-1.9-9.8-2.1-1.4,0-2.7-.1-4-.1-9.1,0-16.3,1.7-22.3,4.4-4.1-5.7-11.4-14.7-15.5-14.7h0c-5,0-5.3,23.7-5.3,31.4-1.9,2.6-3.4,5.6-4.7,8.8-4.1,8-6.9,19.7-8,35.3-.7,9.2,5,13.3,11.4,17.5.2.8.9,1.4,1.8,1.4h.3c3.3,2.2,6.6,4.6,9.2,7.8.7,1.7,1.3,3.4,1.8,5.1-1.3,3.8-2.8,8.1-3.8,11.8-1.2,4.4-2.3,8.9-3.2,13.4-1,4.5-1.8,9-2.4,13.6-.4,2.3-.6,4.6-.8,6.9,0,1.2-.2,2.3-.2,3.5v3.5c-.1,0-.2,1.3-.2,1.3M62.9,146.9c0,.3-.2.6-.2.9l.2-1s0,0,0,.1Z"/>
</svg>