<?xml version="1.0" encoding="UTF-8"?>
<svg id="Lager_1" data-name="Lager 1" xmlns="http://www.w3.org/2000/svg" version="1.1" viewBox="0 0 200 200.9">
  <defs>
    <style>
      .cls-1 {
        fill: #78a5ff;
      }

      .cls-1, .cls-2, .cls-3, .cls-4, .cls-5 {
        stroke-width: 0px;
      }

      .cls-2 {
        fill: #3a3a3a;
      }

      .cls-6 {
        stroke-miterlimit: 10;
        stroke-width: 2px;
      }

      .cls-6, .cls-7, .cls-8 {
        fill: #e1e1ef;
      }

      .cls-6, .cls-7, .cls-8, .cls-9 {
        stroke: #304f7b;
      }

      .cls-7, .cls-9 {
        stroke-miterlimit: 10;
        stroke-width: 4px;
      }

      .cls-8 {
        stroke-miterlimit: 10;
        stroke-width: 4px;
      }

      .cls-3 {
        fill: #304f7b;
        opacity: .2;
      }

      .cls-9 {
        fill: none;
      }

      .cls-4 {
        fill: #84a0c1;
      }

      .cls-5 {
        fill: #f96476;
      }
    </style>
  </defs>
  <polygon class="cls-1" points="200 200 0 200 0 65.9 0 0 200 0 200 200"/>
  <polyline class="cls-7" points="42.7 183.6 42.7 198.8 125.5 198.8"/>
  <g>
    <polygon class="cls-7" points="134.2 72 144.3 67.1 150.3 76.4 142.1 82.4 134.2 72"/>
    <path class="cls-7" d="M59.8,92.2c6.8-24.5,32.1-38.9,56.7-32.2,24.5,6.8,38.9,32.1,32.2,56.7"/>
    <rect class="cls-6" x="74.7" y="78.7" width="20" height="20" transform="translate(-23.3 146.7) rotate(-74.6)"/>
    <polyline class="cls-7" points="98.6 198.4 35.3 181 59.8 92.2 148.6 116.6 125.8 199.6"/>
    <line class="cls-9" x1="55" y1="109.5" x2="143.9" y2="134"/>
    <circle class="cls-5" cx="82.6" cy="108.1" r="5.1"/>
    <circle class="cls-2" cx="84.7" cy="88.7" r="5.1"/>
    <rect class="cls-4" x="92.7" y="109.4" width="13.4" height="6" transform="translate(-35.3 178.4) rotate(-74.6)"/>
    <rect class="cls-4" x="104.3" y="112.6" width="13.4" height="6" transform="translate(-29.9 191.9) rotate(-74.6)"/>
    <rect class="cls-4" x="115.9" y="115.8" width="13.4" height="6" transform="translate(-24.4 205.4) rotate(-74.6)"/>
  </g>
  <path class="cls-8" d="M84,140.5l13.3-3.1c2.7-.6,5.4,1,6,3.7l5.6,23.7-23,5.5-5.6-23.7c-.6-2.7,1-5.4,3.7-6Z"/>
  <polygon class="cls-7" points="112.7 198.1 96.9 198.8 90.4 169.1 105 165.6 112.7 198.1"/>
  <line class="cls-9" x1="93.3" y1="198.8" x2="116.6" y2="198.8"/>
  <path class="cls-3" d="M127.3,64.5s-6.7,8.4-4.7,19c4.7,24.5-12.5,31.1-16.2,37.7-9.1,16.1-26.8,20.2-26.8,20.2,0,0,9,19.5,10.8,27.6s8.2,29.4,8.2,29.4l26.9,2.4,24.9-92.8s-2-35.6-23-43.6Z"/>
</svg>